<?xml version="1.0" encoding="UTF-8"?>
<svg xmlns="http://www.w3.org/2000/svg" xmlns:xlink="http://www.w3.org/1999/xlink" width="1920" height="1080" viewBox="0 0 1920 1080">
<defs>
<g>
<g id="glyph-0-0">
<path d="M 0.222656 0 L 0.222656 -2.1875 L 0.511719 -2.1875 L 0.511719 -1.101562 L 1.601562 -2.1875 L 1.992188 -2.1875 L 1.074219 -1.300781 L 2.03125 0 L 1.648438 0 L 0.871094 -1.105469 L 0.511719 -0.757812 L 0.511719 0 Z "/>
</g>
<g id="glyph-0-1">
<path d="M 1.285156 -0.511719 L 1.5625 -0.476562 C 1.519531 -0.3125 1.4375 -0.1875 1.320312 -0.0976562 C 1.203125 -0.0078125 1.050781 0.0351562 0.867188 0.0351562 C 0.636719 0.0351562 0.453125 -0.0351562 0.316406 -0.179688 C 0.179688 -0.320312 0.113281 -0.519531 0.113281 -0.777344 C 0.113281 -1.046875 0.179688 -1.253906 0.316406 -1.398438 C 0.457031 -1.546875 0.632812 -1.621094 0.851562 -1.621094 C 1.0625 -1.621094 1.238281 -1.546875 1.371094 -1.402344 C 1.503906 -1.261719 1.574219 -1.058594 1.574219 -0.796875 C 1.574219 -0.78125 1.570312 -0.753906 1.570312 -0.722656 L 0.390625 -0.722656 C 0.398438 -0.550781 0.449219 -0.417969 0.539062 -0.324219 C 0.625 -0.230469 0.734375 -0.183594 0.867188 -0.183594 C 0.96875 -0.183594 1.050781 -0.210938 1.121094 -0.261719 C 1.191406 -0.3125 1.246094 -0.398438 1.285156 -0.511719 M 0.40625 -0.945312 L 1.289062 -0.945312 C 1.277344 -1.078125 1.242188 -1.179688 1.1875 -1.246094 C 1.101562 -1.347656 0.992188 -1.398438 0.855469 -1.398438 C 0.730469 -1.398438 0.628906 -1.359375 0.542969 -1.277344 C 0.460938 -1.191406 0.414062 -1.082031 0.40625 -0.945312 M 0.847656 -2.035156 L 0.675781 -1.78125 L 0.371094 -1.78125 L 0.691406 -2.199219 L 0.980469 -2.199219 L 1.316406 -1.78125 L 1.011719 -1.78125 L 0.847656 -2.035156 M 0.894531 -2.726562 L 1.253906 -2.726562 L 0.910156 -2.308594 L 0.691406 -2.308594 Z "/>
</g>
<g id="glyph-0-2">
<path d="M 0.789062 -0.242188 L 0.828125 -0.00390625 C 0.75 0.0117188 0.683594 0.0195312 0.625 0.0195312 C 0.527344 0.0195312 0.449219 0.00390625 0.398438 -0.0234375 C 0.34375 -0.0546875 0.304688 -0.0976562 0.285156 -0.148438 C 0.261719 -0.195312 0.25 -0.304688 0.25 -0.464844 L 0.25 -1.375 L 0.0546875 -1.375 L 0.0546875 -1.585938 L 0.25 -1.585938 L 0.25 -1.976562 L 0.519531 -2.136719 L 0.519531 -1.585938 L 0.789062 -1.585938 L 0.789062 -1.375 L 0.519531 -1.375 L 0.519531 -0.449219 C 0.519531 -0.371094 0.523438 -0.324219 0.53125 -0.300781 C 0.542969 -0.28125 0.558594 -0.261719 0.578125 -0.25 C 0.597656 -0.234375 0.628906 -0.230469 0.671875 -0.230469 C 0.699219 -0.230469 0.738281 -0.234375 0.789062 -0.242188 Z "/>
</g>
<g id="glyph-0-3">
</g>
<g id="glyph-0-4">
<path d="M 1.210938 0.605469 L 1.210938 -0.167969 C 1.167969 -0.109375 1.113281 -0.0625 1.035156 -0.0234375 C 0.960938 0.015625 0.882812 0.0351562 0.796875 0.0351562 C 0.609375 0.0351562 0.445312 -0.0390625 0.3125 -0.191406 C 0.175781 -0.339844 0.109375 -0.546875 0.109375 -0.808594 C 0.109375 -0.964844 0.136719 -1.109375 0.191406 -1.234375 C 0.246094 -1.363281 0.324219 -1.457031 0.429688 -1.523438 C 0.535156 -1.589844 0.652344 -1.621094 0.777344 -1.621094 C 0.972656 -1.621094 1.125 -1.539062 1.238281 -1.371094 L 1.238281 -1.585938 L 1.480469 -1.585938 L 1.480469 0.605469 L 1.210938 0.605469 M 0.382812 -0.796875 C 0.382812 -0.59375 0.425781 -0.441406 0.511719 -0.339844 C 0.597656 -0.234375 0.699219 -0.183594 0.820312 -0.183594 C 0.933594 -0.183594 1.03125 -0.234375 1.113281 -0.332031 C 1.195312 -0.425781 1.238281 -0.574219 1.238281 -0.773438 C 1.238281 -0.984375 1.195312 -1.140625 1.109375 -1.25 C 1.019531 -1.355469 0.917969 -1.410156 0.800781 -1.410156 C 0.683594 -1.410156 0.585938 -1.359375 0.503906 -1.261719 C 0.425781 -1.160156 0.382812 -1.007812 0.382812 -0.796875 Z "/>
</g>
<g id="glyph-0-5">
<path d="M 1.238281 0 L 1.238281 -0.234375 C 1.117188 -0.0546875 0.949219 0.0351562 0.738281 0.0351562 C 0.644531 0.0351562 0.554688 0.0195312 0.476562 -0.0195312 C 0.394531 -0.0546875 0.335938 -0.0976562 0.292969 -0.152344 C 0.253906 -0.207031 0.226562 -0.273438 0.210938 -0.351562 C 0.199219 -0.40625 0.195312 -0.488281 0.195312 -0.601562 L 0.195312 -1.585938 L 0.464844 -1.585938 L 0.464844 -0.707031 C 0.464844 -0.566406 0.46875 -0.472656 0.480469 -0.421875 C 0.496094 -0.351562 0.535156 -0.296875 0.589844 -0.257812 C 0.644531 -0.214844 0.710938 -0.195312 0.789062 -0.195312 C 0.871094 -0.195312 0.945312 -0.214844 1.019531 -0.257812 C 1.089844 -0.296875 1.136719 -0.355469 1.167969 -0.425781 C 1.195312 -0.496094 1.210938 -0.601562 1.210938 -0.734375 L 1.210938 -1.585938 L 1.480469 -1.585938 L 1.480469 0 Z "/>
</g>
<g id="glyph-0-6">
<path d="M 1.234375 -0.195312 C 1.136719 -0.109375 1.039062 -0.0507812 0.949219 -0.015625 C 0.855469 0.0195312 0.757812 0.0351562 0.652344 0.0351562 C 0.476562 0.0351562 0.34375 -0.0078125 0.25 -0.0898438 C 0.15625 -0.175781 0.109375 -0.285156 0.109375 -0.417969 C 0.109375 -0.496094 0.128906 -0.566406 0.164062 -0.628906 C 0.199219 -0.695312 0.246094 -0.746094 0.300781 -0.785156 C 0.359375 -0.824219 0.421875 -0.851562 0.496094 -0.871094 C 0.546875 -0.886719 0.628906 -0.898438 0.734375 -0.914062 C 0.949219 -0.9375 1.109375 -0.96875 1.214844 -1.003906 C 1.214844 -1.042969 1.214844 -1.066406 1.214844 -1.074219 C 1.214844 -1.183594 1.1875 -1.261719 1.136719 -1.308594 C 1.070312 -1.367188 0.96875 -1.398438 0.832031 -1.398438 C 0.707031 -1.398438 0.613281 -1.375 0.554688 -1.332031 C 0.492188 -1.289062 0.449219 -1.210938 0.417969 -1.097656 L 0.15625 -1.132812 C 0.179688 -1.246094 0.21875 -1.335938 0.273438 -1.40625 C 0.328125 -1.472656 0.410156 -1.527344 0.511719 -1.566406 C 0.617188 -1.601562 0.734375 -1.621094 0.871094 -1.621094 C 1.007812 -1.621094 1.117188 -1.605469 1.203125 -1.574219 C 1.285156 -1.539062 1.347656 -1.5 1.386719 -1.453125 C 1.425781 -1.40625 1.457031 -1.34375 1.472656 -1.269531 C 1.480469 -1.222656 1.484375 -1.140625 1.484375 -1.023438 L 1.484375 -0.664062 C 1.484375 -0.414062 1.492188 -0.257812 1.5 -0.191406 C 1.511719 -0.125 1.535156 -0.0625 1.570312 0 L 1.289062 0 C 1.261719 -0.0546875 1.242188 -0.121094 1.234375 -0.195312 M 1.214844 -0.796875 C 1.117188 -0.753906 0.96875 -0.722656 0.773438 -0.695312 C 0.664062 -0.679688 0.585938 -0.660156 0.539062 -0.640625 C 0.496094 -0.621094 0.460938 -0.589844 0.433594 -0.554688 C 0.410156 -0.515625 0.398438 -0.472656 0.398438 -0.425781 C 0.398438 -0.355469 0.425781 -0.292969 0.476562 -0.246094 C 0.53125 -0.199219 0.613281 -0.175781 0.714844 -0.175781 C 0.820312 -0.175781 0.910156 -0.195312 0.992188 -0.242188 C 1.074219 -0.289062 1.132812 -0.351562 1.167969 -0.429688 C 1.199219 -0.488281 1.214844 -0.578125 1.214844 -0.695312 L 1.214844 -0.796875 M 0.789062 -1.960938 C 0.847656 -1.964844 0.882812 -1.972656 0.898438 -1.976562 C 0.953125 -1.996094 0.980469 -2.023438 0.980469 -2.0625 C 0.980469 -2.082031 0.96875 -2.101562 0.9375 -2.117188 C 0.898438 -2.140625 0.832031 -2.152344 0.738281 -2.152344 C 0.710938 -2.152344 0.664062 -2.152344 0.601562 -2.148438 L 0.582031 -2.300781 C 0.621094 -2.308594 0.695312 -2.3125 0.796875 -2.308594 C 0.921875 -2.308594 1.019531 -2.289062 1.097656 -2.25 C 1.183594 -2.207031 1.226562 -2.148438 1.230469 -2.074219 C 1.234375 -1.953125 1.144531 -1.878906 0.957031 -1.855469 L 0.957031 -1.78125 L 0.789062 -1.78125 Z "/>
</g>
</g>
</defs>
<g fill="rgb(100%, 100%, 100%)" fill-opacity="1">
<use xlink:href="#glyph-0-0" x="30" y="22.766602"/>
<use xlink:href="#glyph-0-1" x="32" y="22.766602"/>
<use xlink:href="#glyph-0-2" x="34" y="22.766602"/>
<use xlink:href="#glyph-0-3" x="35" y="22.766602"/>
<use xlink:href="#glyph-0-4" x="36" y="22.766602"/>
<use xlink:href="#glyph-0-5" x="38" y="22.766602"/>
<use xlink:href="#glyph-0-6" x="40" y="22.766602"/>
</g>
</svg>
