<?xml version="1.0" encoding="UTF-8"?>
<svg xmlns="http://www.w3.org/2000/svg" xmlns:xlink="http://www.w3.org/1999/xlink" width="1920" height="1080" viewBox="0 0 1920 1080">
<defs>
<g>
<g id="glyph-0-0">
<path d="M 0.257812 0 L 0.257812 -2.386719 L 1.15625 -2.386719 C 1.316406 -2.386719 1.4375 -2.378906 1.519531 -2.363281 C 1.636719 -2.34375 1.734375 -2.304688 1.816406 -2.25 C 1.894531 -2.195312 1.957031 -2.121094 2.007812 -2.023438 C 2.054688 -1.921875 2.078125 -1.8125 2.078125 -1.695312 C 2.078125 -1.492188 2.015625 -1.320312 1.882812 -1.179688 C 1.753906 -1.039062 1.523438 -0.96875 1.183594 -0.96875 L 0.574219 -0.96875 L 0.574219 0 L 0.257812 0 M 0.574219 -1.25 L 1.191406 -1.25 C 1.394531 -1.25 1.539062 -1.289062 1.625 -1.367188 C 1.710938 -1.441406 1.753906 -1.546875 1.753906 -1.6875 C 1.753906 -1.785156 1.726562 -1.871094 1.675781 -1.941406 C 1.625 -2.011719 1.558594 -2.0625 1.476562 -2.082031 C 1.425781 -2.097656 1.328125 -2.105469 1.183594 -2.105469 L 0.574219 -2.105469 Z "/>
</g>
<g id="glyph-0-1">
<path d="M 0.214844 0 L 0.214844 -1.726562 L 0.480469 -1.726562 L 0.480469 -1.464844 C 0.546875 -1.589844 0.609375 -1.667969 0.667969 -1.707031 C 0.722656 -1.746094 0.785156 -1.765625 0.855469 -1.765625 C 0.953125 -1.765625 1.054688 -1.734375 1.15625 -1.671875 L 1.054688 -1.402344 C 0.984375 -1.445312 0.910156 -1.464844 0.839844 -1.464844 C 0.777344 -1.464844 0.71875 -1.445312 0.667969 -1.40625 C 0.617188 -1.367188 0.578125 -1.316406 0.558594 -1.246094 C 0.527344 -1.140625 0.507812 -1.027344 0.507812 -0.90625 L 0.507812 0 Z "/>
</g>
<g id="glyph-0-2">
<path d="M 0.109375 -0.863281 C 0.109375 -1.183594 0.199219 -1.421875 0.378906 -1.574219 C 0.527344 -1.703125 0.707031 -1.765625 0.921875 -1.765625 C 1.160156 -1.765625 1.351562 -1.691406 1.503906 -1.535156 C 1.65625 -1.378906 1.730469 -1.164062 1.730469 -0.886719 C 1.730469 -0.667969 1.695312 -0.492188 1.628906 -0.363281 C 1.5625 -0.234375 1.464844 -0.136719 1.339844 -0.0664062 C 1.210938 0.00390625 1.070312 0.0390625 0.921875 0.0390625 C 0.679688 0.0390625 0.484375 -0.0390625 0.335938 -0.195312 C 0.183594 -0.347656 0.109375 -0.574219 0.109375 -0.863281 M 0.410156 -0.863281 C 0.410156 -0.644531 0.460938 -0.476562 0.554688 -0.367188 C 0.652344 -0.257812 0.773438 -0.203125 0.921875 -0.203125 C 1.066406 -0.203125 1.1875 -0.257812 1.285156 -0.367188 C 1.378906 -0.476562 1.429688 -0.648438 1.429688 -0.875 C 1.429688 -1.085938 1.378906 -1.25 1.285156 -1.359375 C 1.1875 -1.46875 1.066406 -1.523438 0.921875 -1.523438 C 0.773438 -1.523438 0.652344 -1.46875 0.554688 -1.359375 C 0.460938 -1.25 0.410156 -1.085938 0.410156 -0.863281 Z "/>
</g>
<g id="glyph-0-3">
<path d="M 0.21875 0 L 0.21875 -1.726562 L 0.480469 -1.726562 L 0.480469 -1.484375 C 0.535156 -1.570312 0.609375 -1.640625 0.699219 -1.691406 C 0.789062 -1.742188 0.890625 -1.765625 1.007812 -1.765625 C 1.132812 -1.765625 1.238281 -1.742188 1.320312 -1.6875 C 1.402344 -1.632812 1.460938 -1.558594 1.492188 -1.464844 C 1.628906 -1.667969 1.808594 -1.765625 2.027344 -1.765625 C 2.199219 -1.765625 2.332031 -1.71875 2.421875 -1.625 C 2.515625 -1.53125 2.5625 -1.382812 2.5625 -1.1875 L 2.5625 0 L 2.269531 0 L 2.269531 -1.089844 C 2.269531 -1.207031 2.261719 -1.289062 2.242188 -1.34375 C 2.222656 -1.394531 2.1875 -1.433594 2.140625 -1.464844 C 2.089844 -1.496094 2.03125 -1.511719 1.960938 -1.511719 C 1.839844 -1.511719 1.742188 -1.472656 1.660156 -1.390625 C 1.578125 -1.3125 1.539062 -1.183594 1.539062 -1.003906 L 1.539062 0 L 1.246094 0 L 1.246094 -1.125 C 1.246094 -1.253906 1.222656 -1.351562 1.175781 -1.414062 C 1.128906 -1.480469 1.050781 -1.511719 0.941406 -1.511719 C 0.859375 -1.511719 0.78125 -1.492188 0.710938 -1.449219 C 0.640625 -1.40625 0.589844 -1.339844 0.558594 -1.257812 C 0.527344 -1.175781 0.511719 -1.054688 0.511719 -0.898438 L 0.511719 0 Z "/>
</g>
<g id="glyph-0-4">
<path d="M 0.21875 0.664062 L 0.21875 -1.726562 L 0.488281 -1.726562 L 0.488281 -1.503906 C 0.550781 -1.589844 0.621094 -1.65625 0.699219 -1.703125 C 0.777344 -1.746094 0.875 -1.765625 0.988281 -1.765625 C 1.136719 -1.765625 1.265625 -1.730469 1.378906 -1.652344 C 1.492188 -1.578125 1.578125 -1.46875 1.632812 -1.332031 C 1.691406 -1.195312 1.71875 -1.042969 1.71875 -0.878906 C 1.71875 -0.699219 1.6875 -0.542969 1.625 -0.398438 C 1.5625 -0.257812 1.46875 -0.148438 1.347656 -0.0742188 C 1.226562 0 1.101562 0.0390625 0.964844 0.0390625 C 0.867188 0.0390625 0.78125 0.0195312 0.703125 -0.0234375 C 0.625 -0.0625 0.5625 -0.117188 0.511719 -0.179688 L 0.511719 0.664062 L 0.21875 0.664062 M 0.484375 -0.855469 C 0.484375 -0.632812 0.53125 -0.46875 0.621094 -0.359375 C 0.710938 -0.253906 0.820312 -0.203125 0.945312 -0.203125 C 1.078125 -0.203125 1.1875 -0.257812 1.28125 -0.367188 C 1.375 -0.476562 1.421875 -0.648438 1.421875 -0.878906 C 1.421875 -1.097656 1.375 -1.265625 1.285156 -1.375 C 1.195312 -1.484375 1.085938 -1.539062 0.960938 -1.539062 C 0.835938 -1.539062 0.726562 -1.480469 0.628906 -1.363281 C 0.53125 -1.246094 0.484375 -1.078125 0.484375 -0.855469 Z "/>
</g>
<g id="glyph-0-5">
<path d="M 0.859375 -0.261719 L 0.902344 -0.00390625 C 0.820312 0.015625 0.746094 0.0234375 0.679688 0.0234375 C 0.574219 0.0234375 0.492188 0.0078125 0.433594 -0.0273438 C 0.375 -0.0625 0.332031 -0.105469 0.308594 -0.160156 C 0.285156 -0.214844 0.273438 -0.332031 0.273438 -0.507812 L 0.273438 -1.5 L 0.0585938 -1.5 L 0.0585938 -1.726562 L 0.273438 -1.726562 L 0.273438 -2.15625 L 0.566406 -2.332031 L 0.566406 -1.726562 L 0.859375 -1.726562 L 0.859375 -1.5 L 0.566406 -1.5 L 0.566406 -0.488281 C 0.566406 -0.40625 0.570312 -0.351562 0.582031 -0.328125 C 0.589844 -0.304688 0.605469 -0.285156 0.628906 -0.273438 C 0.652344 -0.257812 0.6875 -0.25 0.730469 -0.25 C 0.761719 -0.25 0.804688 -0.253906 0.859375 -0.261719 Z "/>
</g>
</g>
</defs>
<g fill="rgb(100%, 100%, 100%)" fill-opacity="1">
<use xlink:href="#glyph-0-0" x="30" y="23.017578"/>
<use xlink:href="#glyph-0-1" x="32" y="23.017578"/>
<use xlink:href="#glyph-0-2" x="33" y="23.017578"/>
<use xlink:href="#glyph-0-3" x="35" y="23.017578"/>
<use xlink:href="#glyph-0-4" x="38" y="23.017578"/>
<use xlink:href="#glyph-0-5" x="40" y="23.017578"/>
</g>
</svg>
